<svg width="211" height="71" viewBox="0 0 211 71" fill="none" xmlns="http://www.w3.org/2000/svg">
<path d="M90.2977 37.3327C90.2977 47.3769 82.4804 54.7782 72.8868 54.7782C63.2932 54.7782 55.476 47.3769 55.476 37.3327C55.476 27.2177 63.2932 19.8871 72.8868 19.8871C82.4804 19.8871 90.2977 27.2177 90.2977 37.3327ZM82.676 37.3327C82.676 31.056 78.1453 26.7615 72.8868 26.7615C67.6283 26.7615 63.0976 31.056 63.0976 37.3327C63.0976 43.5464 67.6283 47.9038 72.8868 47.9038C78.1453 47.9038 82.676 43.5385 82.676 37.3327Z" fill="#EA4335"/>
<path d="M127.858 37.3327C127.858 47.3769 120.041 54.7782 110.447 54.7782C100.854 54.7782 93.0363 47.3769 93.0363 37.3327C93.0363 27.2256 100.854 19.8871 110.447 19.8871C120.041 19.8871 127.858 27.2177 127.858 37.3327ZM120.236 37.3327C120.236 31.056 115.706 26.7615 110.447 26.7615C105.189 26.7615 100.658 31.056 100.658 37.3327C100.658 43.5464 105.189 47.9038 110.447 47.9038C115.706 47.9038 120.236 43.5385 120.236 37.3327Z" fill="#FBBC05"/>
<path d="M163.854 20.9411V52.2613C163.854 65.1449 156.294 70.4069 147.358 70.4069C138.946 70.4069 133.883 64.7516 131.974 60.1267L138.61 57.3502C139.791 60.1897 142.687 63.5403 147.35 63.5403C153.071 63.5403 156.615 59.993 156.615 53.3152V50.8062H156.349C154.643 52.922 151.357 54.7704 147.21 54.7704C138.531 54.7704 130.581 47.1723 130.581 37.3956C130.581 27.548 138.531 19.8871 147.21 19.8871C151.349 19.8871 154.636 21.7355 156.349 23.7883H156.615V20.9489H163.854V20.9411ZM157.155 37.3956C157.155 31.2527 153.078 26.7615 147.89 26.7615C142.632 26.7615 138.226 31.2527 138.226 37.3956C138.226 43.4756 142.632 47.9038 147.89 47.9038C153.078 47.9038 157.155 43.4756 157.155 37.3956Z" fill="#4285F4"/>
<path d="M175.787 2.58289V53.7083H168.353V2.58289H175.787Z" fill="#34A853"/>
<path d="M204.756 43.0742L210.671 47.0384C208.762 49.8778 204.161 54.7702 196.211 54.7702C186.351 54.7702 178.987 47.1092 178.987 37.3246C178.987 26.9501 186.413 19.879 195.358 19.879C204.364 19.879 208.77 27.0838 210.21 30.9772L211 32.9593L187.799 42.618C189.575 46.1182 192.337 47.9036 196.211 47.9036C200.092 47.9036 202.784 45.9844 204.756 43.0742ZM186.546 36.7976L202.056 30.3243C201.203 28.1456 198.636 26.6276 195.616 26.6276C191.742 26.6276 186.351 30.0648 186.546 36.7976Z" fill="#EA4335"/>
<path d="M27.3368 32.7942V25.3928H52.1502C52.3928 26.6827 52.518 28.2086 52.518 29.8604C52.518 35.4134 51.0077 42.2799 46.1405 47.1722C41.4063 52.1274 35.3575 54.7702 27.3446 54.7702C12.4925 54.7702 0.00366211 42.6103 0.00366211 27.6816C0.00366211 12.753 12.4925 0.593018 27.3446 0.593018C35.561 0.593018 41.4141 3.83358 45.8119 8.05733L40.616 13.28C37.4625 10.3068 33.19 7.99441 27.3368 7.99441C16.4912 7.99441 8.00875 16.7801 8.00875 27.6816C8.00875 38.5831 16.4912 47.3689 27.3368 47.3689C34.3715 47.3689 38.378 44.5294 40.9446 41.9496C43.0261 39.8573 44.3955 36.8685 44.9354 32.7863L27.3368 32.7942Z" fill="#4285F4"/>
</svg>
