<svg width="288" height="63" viewBox="0 0 288 63" fill="none" xmlns="http://www.w3.org/2000/svg">
<g clip-path="url(#clip0_15_4618)">
<path d="M287.98 28.5491V23.4444H281.712V15.5085L281.501 15.5742L275.614 17.396L275.498 17.4316V23.4447H266.206V20.0949C266.206 18.5351 266.551 17.3415 267.23 16.5455C267.905 15.759 268.871 15.3591 270.102 15.3591C270.987 15.3591 271.904 15.57 272.826 15.9859L273.057 16.0903V10.7144L272.948 10.6739C272.088 10.3611 270.918 10.2036 269.467 10.2036C267.639 10.2036 265.978 10.606 264.529 11.4034C263.08 12.202 261.939 13.342 261.141 14.7914C260.345 16.2391 259.941 17.9112 259.941 19.7616V23.4444H255.576V28.5491H259.941V50.0543H266.206V28.5491H275.498V42.2153C275.498 47.8436 278.123 50.6959 283.3 50.6959C284.151 50.6959 285.046 50.5951 285.96 50.3977C286.891 50.1949 287.525 49.9925 287.898 49.7763L287.98 49.7269V44.575L287.725 44.7454C287.385 44.9746 286.962 45.1618 286.466 45.3011C285.967 45.4429 285.551 45.5139 285.228 45.5139C284.015 45.5139 283.118 45.1835 282.561 44.5312C281.998 43.873 281.713 42.7221 281.713 41.1121V28.5491H287.98ZM241.585 45.5148C239.311 45.5148 237.518 44.7522 236.254 43.25C234.983 41.7402 234.339 39.5877 234.339 36.8528C234.339 34.0312 234.983 31.8228 236.255 30.2863C237.519 28.76 239.295 27.9853 241.534 27.9853C243.706 27.9853 245.436 28.7251 246.674 30.1855C247.919 31.6535 248.551 33.8442 248.551 36.6986C248.551 39.5882 247.957 41.8078 246.785 43.2926C245.622 44.7662 243.872 45.5148 241.585 45.5148ZM241.863 22.8034C237.525 22.8034 234.079 24.0891 231.622 26.6249C229.166 29.1609 227.922 32.6705 227.922 37.0569C227.922 41.2232 229.137 44.5744 231.534 47.0159C233.931 49.4582 237.193 50.6953 241.229 50.6953C245.434 50.6953 248.812 49.3916 251.268 46.8207C253.723 44.2526 254.968 40.7762 254.968 36.4923C254.968 32.2608 253.8 28.8846 251.497 26.4595C249.192 24.0332 245.95 22.8034 241.863 22.8034ZM217.82 22.8034C214.869 22.8034 212.427 23.5668 210.563 25.0721C208.686 26.5864 207.735 28.5724 207.735 30.9757C207.735 32.2249 207.94 33.3345 208.344 34.2757C208.751 35.22 209.38 36.0514 210.217 36.7492C211.047 37.4413 212.328 38.1663 214.025 38.9039C215.452 39.4978 216.516 40.0001 217.192 40.396C217.853 40.7841 218.322 41.1741 218.587 41.554C218.844 41.9258 218.975 42.4346 218.975 43.0624C218.975 44.8502 217.651 45.72 214.927 45.72C213.917 45.72 212.764 45.5066 211.502 45.086C210.248 44.6718 209.065 44.0651 207.994 43.2873L207.734 43.0986V49.1993L207.83 49.2442C208.716 49.6581 209.834 50.0071 211.151 50.2817C212.466 50.5566 213.661 50.6964 214.699 50.6964C217.901 50.6964 220.48 49.9293 222.362 48.415C224.255 46.8904 225.215 44.8575 225.215 42.3711C225.215 40.5774 224.699 39.0393 223.68 37.7988C222.669 36.5684 220.913 35.4388 218.465 34.4403C216.514 33.6485 215.265 32.9911 214.749 32.4866C214.252 31.9991 214 31.3098 214 30.4368C214 29.663 214.311 29.043 214.951 28.5409C215.595 28.0364 216.492 27.7797 217.617 27.7797C218.661 27.7797 219.729 27.9465 220.791 28.2734C221.853 28.6002 222.785 29.0379 223.563 29.5734L223.819 29.7503V23.9633L223.721 23.9206C223.003 23.6092 222.056 23.3427 220.906 23.1265C219.761 22.9117 218.723 22.8034 217.82 22.8034ZM191.401 45.5148C189.128 45.5148 187.334 44.7522 186.071 43.25C184.8 41.7402 184.157 39.5882 184.157 36.8528C184.157 34.0312 184.8 31.8228 186.073 30.2863C187.336 28.76 189.111 27.9853 191.351 27.9853C193.523 27.9853 195.252 28.7251 196.491 30.1855C197.736 31.6535 198.368 33.8442 198.368 36.6986C198.368 39.5882 197.774 41.8078 196.602 43.2926C195.438 44.7662 193.69 45.5148 191.401 45.5148ZM191.681 22.8034C187.341 22.8034 183.895 24.0891 181.439 26.6249C178.984 29.1609 177.738 32.6705 177.738 37.0569C177.738 41.2249 178.954 44.5744 181.351 47.0159C183.748 49.4582 187.01 50.6953 191.046 50.6953C195.251 50.6953 198.629 49.3916 201.085 46.8207C203.54 44.2526 204.785 40.7762 204.785 36.4923C204.785 32.2608 203.617 28.8846 201.313 26.4595C199.008 24.0332 195.767 22.8034 191.681 22.8034ZM168.228 28.0527V23.4444H162.039V50.0537H168.228V36.442C168.228 34.1275 168.746 32.226 169.77 30.7898C170.781 29.3707 172.128 28.6516 173.773 28.6516C174.33 28.6516 174.956 28.7445 175.634 28.9284C176.305 29.1112 176.79 29.3097 177.077 29.5187L177.337 29.7093V23.3989L177.237 23.3554C176.661 23.1077 175.845 22.9828 174.813 22.9828C173.258 22.9828 171.866 23.4882 170.674 24.4833C169.628 25.358 168.872 26.5572 168.293 28.0527H168.228ZM150.955 22.8034C148.116 22.8034 145.583 23.4191 143.429 24.633C141.271 25.8496 139.601 27.5866 138.465 29.7952C137.335 31.9986 136.761 34.5722 136.761 37.4424C136.761 39.9566 137.317 42.2638 138.417 44.2973C139.518 46.3341 141.076 47.9276 143.049 49.0328C145.018 50.1365 147.294 50.6961 149.815 50.6961C152.756 50.6961 155.267 50.1014 157.281 48.9286L157.362 48.8814V43.1469L157.102 43.339C156.19 44.0109 155.171 44.5472 154.074 44.9336C152.98 45.3196 151.983 45.5148 151.108 45.5148C148.68 45.5148 146.73 44.7463 145.315 43.2311C143.897 41.7141 143.178 39.5837 143.178 36.9031C143.178 34.2055 143.928 32.0205 145.406 30.4082C146.879 28.8007 148.832 27.9853 151.21 27.9853C153.245 27.9853 155.227 28.6819 157.102 30.0578L157.362 30.2484V24.2062L157.278 24.1584C156.572 23.7589 155.61 23.4289 154.415 23.1788C153.225 22.9291 152.061 22.8034 150.955 22.8034ZM132.498 23.4447H126.309V50.0537H132.498V23.4447ZM129.467 12.109C128.448 12.109 127.56 12.4597 126.83 13.1547C126.097 13.8516 125.725 14.7291 125.725 15.7646C125.725 16.7838 126.093 17.6453 126.819 18.3237C127.54 19.0001 128.431 19.3429 129.467 19.3429C130.503 19.3429 131.398 19.0001 132.127 18.3248C132.862 17.6453 133.235 16.7841 133.235 15.7646C133.235 14.7653 132.872 13.8968 132.158 13.1828C131.444 12.4701 130.538 12.109 129.467 12.109ZM114.025 21.4814V50.0537H120.341V12.9236H111.599L100.488 40.5027L89.7051 12.9236H80.6074V50.0534H86.5429V21.4786H86.7467L98.1332 50.0537H102.612L113.821 21.4814H114.025Z" fill="#706D6E"/>
<path d="M30.0951 29.9621H0.980469V0.516602H30.0951V29.9621Z" fill="#F1511B"/>
<path d="M62.2408 29.9615H33.1267V0.515991H62.2408V29.9615Z" fill="#80CC28"/>
<path d="M30.0942 62.4841H0.980469V33.0388H30.0942V62.4841Z" fill="#00ADEF"/>
<path d="M62.2408 62.4841H33.1267V33.0388H62.2408V62.4841Z" fill="#FBBC09"/>
</g>
<defs>
<clipPath id="clip0_15_4618">
<rect width="287" height="62" fill="white" transform="translate(0.980469 0.5)"/>
</clipPath>
</defs>
</svg>
