<svg width="281" height="71" viewBox="0 0 281 71" fill="none" xmlns="http://www.w3.org/2000/svg">
<g clip-path="url(#clip0_15_4625)">
<path d="M90.1719 55.626L93.6578 47.5757C97.4249 50.3709 102.429 51.8245 107.377 51.8245C111.031 51.8245 113.337 50.4268 113.337 48.3024C113.28 42.3764 91.465 47.0166 91.2964 32.1457C91.2401 24.5985 97.9871 18.7843 107.545 18.7843C113.224 18.7843 118.903 20.182 122.951 23.3686L119.69 31.5867C115.979 29.2386 111.369 27.5615 106.983 27.5615C104.003 27.5615 102.035 28.9591 102.035 30.7481C102.092 36.5623 124.075 33.3757 124.3 47.5757C124.3 55.2906 117.722 60.7134 108.276 60.7134C101.361 60.7134 95.0072 59.0922 90.1719 55.626ZM223.931 44.6686C222.188 47.6875 218.927 49.756 215.16 49.756C209.594 49.756 205.096 45.2835 205.096 39.7489C205.096 34.2142 209.594 29.7418 215.16 29.7418C218.927 29.7418 222.188 31.8103 223.931 34.8292L233.545 29.5182C229.947 23.1449 223.031 18.7843 215.16 18.7843C203.521 18.7843 194.075 28.1764 194.075 39.7489C194.075 51.3213 203.521 60.7134 215.16 60.7134C223.088 60.7134 229.947 56.4087 233.545 49.9796L223.931 44.6686ZM129.136 1.39771H141.168V59.9308H129.136V1.39771ZM238.268 1.39771V59.9308H250.3V42.3764L264.582 59.9308H279.987L261.826 39.078L278.638 19.6229H263.907L250.3 35.7796V1.39771H238.268ZM176.927 44.7804C175.184 47.6316 171.586 49.756 167.537 49.756C161.971 49.756 157.473 45.2835 157.473 39.7489C157.473 34.2142 161.971 29.7418 167.537 29.7418C171.586 29.7418 175.184 31.978 176.927 34.8851V44.7804ZM176.927 19.6229V24.3749C174.959 21.0764 170.067 18.7843 164.951 18.7843C154.381 18.7843 146.059 28.0646 146.059 39.693C146.059 51.3213 154.381 60.7134 164.951 60.7134C170.067 60.7134 174.959 58.4213 176.927 55.1229V59.8749H188.959V19.6229H176.927Z" fill="black"/>
<path d="M15.7867 44.7244C15.7867 48.8055 12.4695 52.1039 8.36505 52.1039C4.26063 52.1039 0.943359 48.8055 0.943359 44.7244C0.943359 40.6433 4.26063 37.3448 8.36505 37.3448H15.7867V44.7244ZM19.4976 44.7244C19.4976 40.6433 22.8148 37.3448 26.9193 37.3448C31.0237 37.3448 34.341 40.6433 34.341 44.7244V63.1732C34.341 67.2543 31.0237 70.5527 26.9193 70.5527C22.8148 70.5527 19.4976 67.2543 19.4976 63.1732V44.7244Z" fill="#E01E5A"/>
<path d="M26.9188 15.0945C22.8144 15.0945 19.4972 11.7961 19.4972 7.71498C19.4972 3.63387 22.8144 0.335449 26.9188 0.335449C31.0233 0.335449 34.3405 3.63387 34.3405 7.71498V15.0945H26.9188ZM26.9188 18.8402C31.0233 18.8402 34.3405 22.1386 34.3405 26.2197C34.3405 30.3008 31.0233 33.5992 26.9188 33.5992H8.30841C4.20399 33.5992 0.886719 30.3008 0.886719 26.2197C0.886719 22.1386 4.20399 18.8402 8.30841 18.8402H26.9188Z" fill="#36C5F0"/>
<path d="M56.6619 26.2197C56.6619 22.1386 59.9791 18.8402 64.0836 18.8402C68.188 18.8402 71.5052 22.1386 71.5052 26.2197C71.5052 30.3008 68.188 33.5992 64.0836 33.5992H56.6619V26.2197ZM52.951 26.2197C52.951 30.3008 49.6338 33.5992 45.5293 33.5992C41.4249 33.5992 38.1077 30.3008 38.1077 26.2197V7.71498C38.1077 3.63387 41.4249 0.335449 45.5293 0.335449C49.6338 0.335449 52.951 3.63387 52.951 7.71498V26.2197Z" fill="#2EB67D"/>
<path d="M45.5293 55.7937C49.6338 55.7937 52.951 59.0921 52.951 63.1732C52.951 67.2543 49.6338 70.5527 45.5293 70.5527C41.4249 70.5527 38.1077 67.2543 38.1077 63.1732V55.7937H45.5293ZM45.5293 52.1039C41.4249 52.1039 38.1077 48.8055 38.1077 44.7244C38.1077 40.6433 41.4249 37.3448 45.5293 37.3448H64.1398C68.2442 37.3448 71.5615 40.6433 71.5615 44.7244C71.5615 48.8055 68.2442 52.1039 64.1398 52.1039H45.5293Z" fill="#ECB22E"/>
</g>
<defs>
<clipPath id="clip0_15_4625">
<rect width="280" height="71" fill="white" transform="translate(0.492188)"/>
</clipPath>
</defs>
</svg>
