<svg width="60" height="60" viewBox="0 0 60 60" fill="none" xmlns="http://www.w3.org/2000/svg">
<path d="M46.4409 33.632C44.7904 25.3257 52.6745 20.4541 52.6745 20.4541C52.6745 20.4541 49.6028 16.01 44.4403 14.8667C39.2804 13.7209 36.6979 15.1525 34.1204 16.2262C31.5405 17.3025 30.2531 17.3025 30.2531 17.3025C26.53 17.3025 23.8083 13.3604 16.7148 15.1551C11.8278 16.3884 6.68328 22.0299 5.75378 28.763C4.82427 35.4987 6.8301 44.0934 10.6974 50.7545C14.5648 57.4207 18.5043 59.926 21.3004 59.9981C24.0967 60.0675 26.8878 57.9949 30.2531 57.4902C33.621 56.9906 35.6937 58.7107 38.9971 59.6402C42.2877 60.5672 43.4412 59.7072 47.2313 56.4834C51.0317 53.2597 54.4717 44.0137 54.4717 44.0137C54.4717 44.0137 48.0914 41.9434 46.4409 33.632Z" fill="white"/>
<path d="M39.1337 9.49327C42.7899 5.76763 41.5514 0 41.5514 0C41.5514 0 36.4173 0.901211 32.9773 4.48015C29.5399 8.06172 30.1089 13.7186 30.1089 13.7186C30.1089 13.7186 35.4774 13.2165 39.1337 9.49327Z" fill="white"/>
</svg>
